<?xml version="1.0" standalone="no"?>
<!DOCTYPE svg PUBLIC "-//W3C//DTD SVG 20010904//EN"
 "http://www.w3.org/TR/2001/REC-SVG-20010904/DTD/svg10.dtd">
<svg version="1.0" xmlns="http://www.w3.org/2000/svg"
 width="1000.000000pt" height="1000.000000pt" viewBox="0 0 1000.000000 1000.000000"
 preserveAspectRatio="xMidYMid meet">
<metadata>
Created by potrace 1.11, written by Peter Selinger 2001-2013
</metadata>
<g transform="translate(0.000000,1000.000000) scale(0.100000,-0.100000)"
fill="#000000" stroke="none">
<path d="M4615 9979 c-839 -67 -1660 -349 -2365 -814 -1173 -773 -1975 -2029
-2185 -3420 -43 -285 -50 -394 -50 -750 0 -374 12 -525 66 -845 210 -1248 910
-2389 1931 -3153 1627 -1215 3824 -1327 5562 -283 1017 612 1787 1570 2166
2696 301 894 340 1870 111 2795 -354 1431 -1340 2644 -2676 3291 -568 275
-1166 434 -1814 484 -158 12 -588 11 -746 -1z m655 -99 c641 -37 1223 -181
1785 -443 1025 -478 1864 -1303 2351 -2312 277 -575 430 -1147 475 -1775 15
-209 6 -707 -15 -890 -121 -1028 -518 -1922 -1194 -2692 -52 -60 -96 -108 -97
-108 -1 0 -78 37 -171 81 -93 45 -209 97 -259 116 -49 19 -216 97 -370 173
-314 154 -462 220 -550 245 -67 19 -79 26 -251 137 -105 68 -128 79 -185 87
-35 4 -79 6 -97 4 -37 -6 -59 9 -102 72 -79 116 -103 296 -56 426 42 115 93
224 141 299 46 72 101 197 111 255 10 58 35 145 80 282 60 181 81 296 89 484
8 177 13 189 132 350 34 48 63 96 63 107 0 11 4 24 10 27 6 3 10 18 10 33 0
21 -8 12 -44 -48 -24 -42 -55 -82 -69 -89 -16 -8 -23 -19 -20 -28 6 -15 -12
-33 -34 -33 -15 0 -17 33 -4 58 6 9 14 74 19 144 8 101 14 134 31 161 19 30
19 36 6 47 -11 9 -15 33 -15 84 0 39 -7 96 -15 126 -22 83 -20 111 15 143 l30
29 29 -24 c31 -24 38 -42 22 -53 -5 -3 -13 -31 -17 -63 -3 -31 -10 -65 -15
-74 -7 -13 -3 -18 22 -23 44 -10 93 2 116 28 18 20 21 40 27 209 5 168 4 188
-12 206 -24 28 -62 34 -97 16 -32 -16 -77 -11 -95 11 -15 18 -4 36 16 28 23
-9 139 106 135 135 -3 25 16 30 26 6 3 -9 0 -41 -7 -71 -13 -59 -4 -86 20 -58
19 23 26 19 44 -25 12 -31 16 -76 16 -198 0 -138 -3 -167 -25 -235 -14 -47
-36 -92 -54 -113 -36 -41 -48 -80 -32 -105 6 -10 11 -31 12 -46 0 -28 0 -28
16 7 37 83 61 153 68 201 4 24 9 47 12 52 13 21 33 228 38 397 6 177 -4 453
-17 466 -4 3 -23 1 -42 -6 -28 -9 -49 -30 -101 -106 -36 -53 -70 -106 -75
-120 -12 -30 -24 -30 -44 -2 -20 28 -20 59 -2 118 16 53 78 198 97 228 24 38
-2 38 -34 -1 -18 -20 -38 -37 -44 -37 -19 0 -16 98 6 215 14 75 21 172 26 385
7 304 3 360 -46 537 -11 40 -22 89 -24 110 -12 100 -18 119 -47 150 -31 32
-31 33 -20 90 6 32 13 147 16 256 l4 198 -29 21 c-25 19 -179 242 -195 282 -3
8 -45 49 -93 90 -60 52 -89 85 -96 108 -8 26 -17 34 -47 41 -29 7 -46 21 -73
58 -38 54 -43 74 -19 83 24 9 6 26 -27 26 -36 0 -40 27 -4 36 16 4 32 0 49
-14 39 -30 116 -129 117 -149 0 -15 2 -14 9 5 5 12 16 22 25 22 48 0 -9 65
-128 148 -67 46 -77 50 -77 33 0 -26 -6 -26 -99 0 -56 16 -84 30 -106 53 -16
17 -41 39 -55 48 l-25 17 27 0 c15 1 29 -3 33 -8 7 -13 64 -41 82 -41 24 0 4
19 -43 40 -77 35 -91 39 -102 28 -13 -13 -32 -2 -32 18 0 8 -8 14 -19 14 -38
0 -92 31 -113 65 -20 36 -44 38 -35 4 8 -30 -8 -31 -75 -5 -251 100 -525 154
-617 121 -62 -21 -91 -20 -91 5 0 15 -13 26 -44 40 -24 10 -46 24 -49 32 -3 7
-6 3 -6 -10 -1 -18 -6 -23 -23 -20 -21 3 -23 8 -23 71 0 37 -1 67 -2 67 -1 0
-13 -11 -27 -25 -19 -18 -36 -25 -66 -25 -32 0 -40 -4 -40 -19 0 -10 -7 -25
-16 -32 -13 -10 -15 -25 -11 -66 l6 -53 -30 0 c-20 0 -43 12 -73 40 -24 22
-47 40 -51 40 -4 0 -32 -20 -61 -45 -54 -46 -80 -46 -50 0 9 13 16 26 16 28 0
3 -33 -13 -72 -34 -76 -39 -133 -51 -319 -65 -69 -5 -91 -3 -117 10 l-33 17
-90 -83 c-53 -48 -119 -98 -162 -120 -77 -41 -106 -70 -107 -105 0 -24 -14
-31 -25 -13 -4 6 -19 2 -38 -12 -30 -22 -31 -22 -8 -28 l23 -5 -21 -26 c-11
-14 -28 -54 -37 -87 -14 -51 -23 -66 -54 -86 l-37 -25 4 47 c6 64 32 130 56
147 12 8 18 18 14 21 -4 4 -16 -1 -27 -11 -16 -14 -23 -16 -32 -7 -17 17 -27
15 -21 -6 3 -11 -10 -38 -33 -68 -153 -197 -204 -271 -205 -291 -1 -13 -3 -26
-4 -30 -1 -5 -6 -23 -10 -40 -4 -18 -11 -33 -16 -33 -5 0 -9 -11 -9 -24 0 -33
-16 -41 -32 -16 -14 21 -28 27 -28 10 0 -6 -7 -22 -16 -36 -13 -19 -19 -22
-31 -13 -7 7 -15 10 -16 8 -8 -14 -147 -412 -147 -421 0 -5 12 -8 26 -8 21 0
25 -3 19 -17 -4 -10 -13 -45 -19 -79 -10 -50 -39 -110 -66 -134 -3 -3 -20 -24
-37 -47 -26 -32 -33 -52 -33 -85 0 -24 -9 -90 -20 -148 -11 -58 -20 -130 -20
-160 0 -30 -9 -89 -20 -130 -27 -105 -27 -367 0 -580 11 -85 20 -177 20 -203
0 -40 46 -215 75 -289 5 -14 2 -18 -14 -18 -12 0 -21 6 -21 15 0 14 -54 55
-72 55 -4 0 21 -55 56 -122 64 -126 71 -147 111 -328 12 -58 26 -113 30 -122
5 -13 2 -18 -10 -18 -24 0 -94 -51 -147 -108 -54 -58 -56 -67 -37 -199 11 -78
43 -145 75 -157 7 -3 34 2 58 11 69 26 76 15 76 -117 0 -60 5 -131 11 -158 11
-46 10 -52 -11 -82 -19 -26 -21 -36 -11 -56 6 -14 11 -35 11 -48 0 -19 4 -22
30 -18 28 4 30 2 30 -26 0 -17 5 -43 11 -59 6 -15 26 -105 44 -200 19 -95 61
-277 94 -405 33 -128 62 -246 65 -263 3 -16 8 -43 12 -59 10 -47 80 -191 123
-255 74 -109 140 -282 141 -372 0 -31 4 -37 44 -57 41 -19 44 -24 43 -56 -2
-34 -19 -48 -32 -26 -27 43 -145 -64 -145 -132 0 -16 -3 -17 -22 -7 -12 7 -23
8 -25 3 -12 -36 -175 -274 -188 -274 -20 0 -42 24 -49 53 -5 23 1 35 41 78 38
40 44 52 32 60 -21 13 -24 12 -97 -26 -37 -20 -132 -61 -212 -92 -190 -73
-287 -118 -385 -180 -126 -78 -537 -280 -680 -333 -72 -27 -198 -83 -280 -126
l-149 -78 -48 55 c-94 104 -295 359 -380 481 -326 470 -581 1032 -721 1593
-193 772 -190 1642 9 2403 271 1035 856 1933 1701 2609 931 745 2111 1121
3303 1053z m-373 -536 c4 -10 13 -14 28 -10 23 6 35 -8 35 -41 0 -12 -3 -13
-14 -4 -12 10 -17 8 -26 -9 -12 -23 -56 -25 -54 -2 1 6 2 28 3 47 1 36 17 47
28 19z m-712 -183 c3 -5 -22 -22 -55 -37 -36 -16 -60 -33 -60 -42 0 -12 -3
-13 -11 -5 -7 7 -25 9 -40 6 -22 -4 -29 -2 -29 10 0 25 45 54 87 55 29 2 80
12 100 21 1 1 4 -3 8 -8z m-428 -237 c-27 -25 -51 -43 -54 -41 -10 11 30 64
56 74 47 19 47 14 -2 -33z m152 -1038 c29 -4 55 -5 59 -2 5 3 30 -13 57 -34
32 -25 53 -36 59 -30 15 15 26 12 26 -6 0 -9 -10 -24 -22 -34 l-23 -18 23 -24
c12 -13 22 -33 22 -44 0 -35 12 -64 26 -64 8 0 14 10 14 24 0 13 14 38 30 56
24 25 36 31 57 27 18 -3 45 4 75 19 33 17 64 24 103 24 41 0 55 4 55 14 0 9 7
12 18 9 10 -2 36 10 62 31 47 37 199 92 226 82 15 -6 10 -50 -9 -73 -16 -22
18 -15 38 7 9 10 37 27 60 36 39 14 45 15 74 0 17 -9 31 -21 31 -26 0 -15 21
-12 41 6 24 21 57 3 61 -33 2 -23 7 -27 28 -25 52 6 68 4 166 -31 56 -20 150
-46 210 -58 93 -18 177 -48 307 -109 15 -7 27 -19 27 -27 0 -7 11 -18 25 -23
39 -15 31 -34 -11 -27 -44 7 -64 0 -64 -24 0 -23 29 -39 74 -39 41 0 44 -4 52
-64 l7 -45 -47 -23 c-60 -29 -54 -44 15 -40 l55 4 37 -59 c20 -32 61 -84 91
-117 60 -64 60 -66 13 -133 -29 -41 -30 -45 -22 -115 4 -40 8 -84 9 -98 0 -14
10 -29 23 -36 13 -6 31 -18 41 -27 24 -22 83 -22 113 1 13 10 43 24 67 32 53
17 61 8 62 -60 0 -25 7 -54 15 -64 8 -11 15 -27 15 -37 0 -9 7 -19 15 -23 19
-7 19 -1 0 60 -17 56 -20 124 -5 124 5 0 26 -34 46 -75 23 -47 49 -84 72 -101
35 -27 36 -27 101 -15 132 25 124 26 144 -19 24 -53 41 -42 32 21 -7 49 7 70
20 30 3 -11 15 -23 25 -26 27 -9 60 -88 60 -146 0 -27 6 -97 14 -156 29 -220
37 -1054 11 -1208 -8 -49 -15 -115 -15 -146 0 -31 -9 -101 -20 -154 -11 -53
-20 -121 -20 -150 0 -86 -18 -203 -48 -308 -25 -92 -29 -98 -59 -108 -35 -11
-39 -19 -23 -49 7 -13 7 -21 0 -25 -5 -3 -10 -16 -10 -27 0 -12 -24 -46 -55
-79 -30 -32 -55 -66 -55 -77 0 -23 -56 -62 -87 -62 -12 0 -25 -6 -30 -13 -11
-13 -53 -135 -57 -165 -2 -12 -21 -20 -67 -29 -35 -8 -68 -12 -74 -9 -6 2 -9
-14 -6 -41 3 -43 3 -44 -25 -41 -29 3 -29 2 -39 -72 -7 -53 -14 -75 -24 -75
-19 0 -142 172 -189 265 -37 72 -40 75 -73 73 -19 0 -45 -4 -59 -8 -20 -5 -34
1 -64 24 -32 26 -48 31 -93 31 -71 0 -100 16 -163 94 -29 36 -59 67 -66 70
-23 9 -16 72 14 126 19 35 24 53 17 63 -48 67 -79 103 -92 107 -8 3 -40 -7
-71 -23 -56 -28 -57 -28 -60 -8 -4 26 -8 26 -36 3 -18 -14 -21 -21 -12 -34 15
-24 -32 -118 -48 -96 -24 33 -52 39 -128 28 -40 -6 -85 -16 -100 -22 -24 -9
-32 -6 -78 33 l-50 42 -97 -12 c-82 -10 -102 -16 -125 -38 -61 -58 -39 -140
49 -184 l52 -27 -41 -32 c-22 -18 -60 -64 -85 -102 -31 -47 -50 -68 -59 -64
-8 3 -26 -1 -39 -10 -23 -15 -26 -14 -54 5 l-29 21 -54 -35 c-29 -19 -92 -51
-139 -71 -79 -33 -91 -42 -147 -109 -52 -61 -102 -147 -102 -174 0 -4 11 -14
25 -21 14 -7 25 -17 25 -22 0 -17 -42 -49 -71 -55 -25 -5 -36 0 -65 28 -28 27
-34 40 -34 76 0 25 -5 43 -11 43 -15 0 -171 138 -185 163 -10 18 -11 18 -18 2
-3 -10 -2 -33 4 -51 12 -34 7 -54 -12 -54 -5 0 -7 7 -4 15 4 11 -3 19 -19 25
-30 11 -30 14 -5 51 l21 28 -23 36 c-14 21 -29 34 -38 31 -8 -2 -21 -5 -29 -7
-9 -3 -17 7 -21 27 -4 18 -24 62 -45 100 -21 37 -43 88 -50 113 -10 41 -15 46
-37 43 -37 -4 -51 18 -37 57 13 37 4 52 -41 71 -20 8 -32 22 -36 39 -2 14 -25
105 -49 201 -25 96 -47 202 -51 235 -3 33 -23 116 -44 185 -22 74 -44 176 -54
251 -22 175 -36 568 -36 1072 l0 429 30 68 30 69 -6 228 c-5 188 -4 243 10
313 19 105 53 207 105 324 38 86 41 90 98 120 76 41 223 145 230 162 3 8 10
14 16 14 6 0 25 13 42 29 16 17 56 41 87 55 56 25 57 25 81 6 23 -19 63 -18
52 0 -3 4 -2 22 1 39 7 31 7 31 24 13 11 -11 39 -22 69 -26z m2714 -1039 c13
-20 13 -27 1 -49 -13 -25 -11 -28 38 -78 40 -41 49 -56 41 -68 -13 -22 -33
-27 -33 -8 0 11 -10 16 -33 16 -35 0 -61 22 -106 87 -21 31 -21 33 -4 52 10
10 26 31 36 45 22 32 40 33 60 3z m-1506 -3282 c47 -3 83 -27 83 -56 0 -23
-66 -79 -93 -78 -39 1 -136 24 -147 35 -14 14 15 84 34 84 7 0 19 7 26 15 8
10 21 13 33 9 11 -4 40 -8 64 -9z m182 -314 c11 -7 11 -10 0 -17 -32 -20 -62
-34 -75 -34 -22 0 -16 -18 7 -25 12 -4 37 -23 56 -41 18 -19 39 -34 46 -34 7
0 39 11 72 25 38 15 80 25 114 25 51 0 57 3 98 46 l44 45 71 -11 c38 -6 85 -8
103 -4 26 4 38 1 54 -15 12 -12 27 -21 35 -21 9 0 17 -23 24 -72 23 -148 19
-171 -35 -189 l-36 -11 6 -58 c6 -55 5 -60 -30 -105 -20 -25 -56 -56 -79 -68
-23 -12 -83 -61 -133 -109 -81 -78 -131 -108 -131 -79 0 5 -14 11 -32 15 -17
3 -40 13 -49 22 -21 19 -39 11 -39 -17 0 -24 -12 -24 -32 -1 -20 23 -68 194
-62 218 3 10 23 33 46 49 22 17 46 42 54 58 8 15 19 27 24 27 6 0 10 7 10 15
0 10 -10 15 -34 15 -33 0 -35 2 -38 36 -2 21 -10 40 -18 44 -65 32 -70 33
-257 26 -228 -8 -237 -10 -254 -44 -7 -15 -19 -35 -27 -44 -12 -15 -11 -20 12
-45 23 -24 26 -34 20 -66 -7 -43 15 -77 49 -77 23 0 57 -27 57 -44 -1 -6 -14
-27 -30 -46 -32 -37 -40 -66 -15 -56 10 4 15 -1 15 -14 0 -11 7 -20 15 -20 9
0 15 -9 15 -21 0 -15 -5 -19 -16 -15 -17 6 -128 -63 -156 -98 -17 -20 -18 -21
-45 -3 -15 10 -67 37 -114 62 -48 24 -89 51 -93 60 -5 13 -17 16 -54 13 l-47
-3 3 45 c2 25 6 53 8 63 3 10 0 17 -8 17 -8 0 -40 31 -72 69 -84 101 -151 161
-180 161 -20 0 -25 6 -31 39 -7 41 11 121 27 121 6 0 39 28 74 61 l64 62 80
-2 c44 -1 113 -11 152 -22 40 -11 93 -24 118 -29 l45 -8 52 54 c29 30 54 54
55 55 2 0 80 3 173 6 94 3 197 9 230 13 33 4 65 8 70 9 6 0 16 -3 24 -8z
m-1175 -83 c3 -7 7 -28 10 -45 l6 -33 -47 0 c-50 0 -93 -28 -93 -61 0 -16 -23
-33 -33 -23 -3 3 2 18 10 34 8 17 12 33 10 37 -3 5 17 21 44 38 29 17 49 36
49 47 0 21 38 25 44 6z"/>
<path d="M5922 9245 c0 -16 2 -22 5 -12 2 9 2 23 0 30 -3 6 -5 -1 -5 -18z"/>
<path d="M3168 8472 c-27 -3 -28 -5 -27 -60 1 -43 3 -51 8 -31 11 34 32 73 45
81 15 10 5 14 -26 10z"/>
<path d="M2657 5695 c7 -179 24 -335 38 -338 6 -1 13 21 16 48 10 71 14 88 44
193 l27 93 -25 32 c-13 18 -43 52 -65 77 l-41 45 6 -150z"/>
<path d="M6280 6014 c-44 -11 -75 -11 -155 -2 -121 13 -502 -2 -581 -24 -96
-27 -166 -99 -264 -273 -43 -75 -59 -185 -60 -401 0 -147 1 -152 25 -178 13
-14 29 -26 35 -26 5 0 10 -5 10 -11 0 -15 30 -43 38 -35 3 4 11 21 17 39 8 24
18 34 46 42 20 5 44 18 54 28 13 13 25 16 44 11 14 -4 53 -8 87 -10 l60 -3 13
44 c12 42 14 44 49 42 28 -2 37 2 40 16 5 24 -16 47 -42 47 -27 0 -62 35 -71
72 -5 19 -1 32 14 47 30 30 38 27 62 -21 53 -103 77 -118 215 -133 59 -7 61
-6 87 24 14 17 43 63 64 101 29 53 43 70 60 70 20 0 21 -4 17 -52 l-5 -53 40
-18 c37 -17 42 -17 72 -2 l32 17 -7 -26 c-5 -21 -3 -26 13 -26 11 0 22 4 25 9
3 5 15 7 25 4 13 -3 31 7 55 31 38 38 45 56 21 56 -12 0 -15 14 -15 63 0 37
-5 68 -12 76 -23 22 19 43 72 35 37 -5 43 -4 33 7 -7 7 -13 16 -13 20 0 11
104 -3 127 -17 26 -16 55 -8 51 15 -1 9 0 21 4 26 3 6 -1 47 -10 92 -16 76
-21 86 -81 157 -58 67 -73 78 -140 106 -42 16 -80 30 -86 29 -5 -1 -35 -7 -65
-15z m-888 -686 c4 -35 1 -56 -8 -65 -19 -20 -24 -16 -24 17 0 17 -5 39 -12
49 -15 24 -4 51 20 51 16 0 20 -9 24 -52z m208 -23 c0 -8 -6 -12 -14 -9 -8 3
-24 -9 -39 -27 -17 -22 -30 -30 -42 -26 -9 4 -13 11 -10 17 3 6 -1 13 -9 16
-9 3 -16 12 -16 20 0 9 17 14 53 17 28 2 58 4 65 5 6 1 12 -5 12 -13z m65 -5
c3 -5 -1 -10 -9 -10 -9 0 -16 5 -16 10 0 6 4 10 9 10 6 0 13 -4 16 -10z m-207
-82 c-5 -15 -23 -11 -26 6 -2 11 2 14 13 10 9 -4 14 -11 13 -16z"/>
<path d="M3757 5891 l-178 -6 -60 -50 c-75 -62 -149 -156 -149 -191 0 -33 17
-64 35 -64 8 0 26 -11 41 -25 15 -14 28 -25 30 -25 2 0 28 12 58 27 51 25 57
26 96 13 74 -24 76 -60 5 -90 -41 -17 -43 -21 -47 -67 -3 -26 -1 -52 4 -57 4
-6 8 -20 8 -32 0 -38 25 -49 77 -36 43 12 47 11 62 -10 9 -12 18 -31 21 -42 6
-22 89 -52 116 -42 15 6 16 8 0 24 -9 11 -16 36 -16 62 0 25 -7 51 -16 61 -14
15 -13 19 16 39 30 21 32 21 51 5 10 -10 19 -25 19 -33 0 -15 21 -40 93 -114
32 -32 44 -38 80 -38 79 0 108 16 162 85 28 36 52 77 55 93 3 15 10 27 15 26
18 -1 56 -67 49 -83 -15 -35 -10 -66 13 -69 23 -3 22 -32 -2 -32 -22 0 -25
-30 -5 -50 11 -11 20 -27 20 -35 0 -26 33 -16 80 24 l45 39 -28 7 c-15 4 -27
11 -27 16 0 5 -12 9 -27 9 -23 1 -25 2 -12 10 28 16 152 39 181 33 38 -7 46
18 18 57 -26 37 -8 40 30 4 l28 -27 -19 -41 c-20 -43 -24 -92 -10 -114 6 -10
19 -7 57 15 45 27 50 33 61 84 16 76 15 117 -2 201 -14 66 -20 76 -58 108 -23
19 -55 47 -71 63 -22 21 -36 27 -64 25 -21 -2 -37 2 -39 10 -5 12 42 18 115
14 29 -1 31 1 22 18 -5 10 -10 34 -10 54 0 32 -7 40 -75 91 l-75 57 -18 -22
-17 -21 -27 20 c-31 25 -38 26 -38 7 0 -25 -13 -25 -85 -5 -81 23 -286 30
-588 20z"/>
<path d="M6146 5331 c-3 -5 -37 -19 -76 -30 -38 -12 -70 -25 -70 -29 0 -9 29
-35 55 -49 14 -8 26 -5 54 14 19 13 45 23 57 21 23 -3 54 18 54 37 0 29 -60
59 -74 36z"/>
<path d="M5220 3146 c0 -15 48 -51 57 -43 2 3 -3 17 -12 31 -18 28 -45 35 -45
12z"/>
</g>
</svg>
